<?xml version="1.0" encoding="UTF-8"?>
<!DOCTYPE svg PUBLIC "-//W3C//DTD SVG 1.1//EN" "http://www.w3.org/Graphics/SVG/1.1/DTD/svg11.dtd">
<!-- Creator: CorelDRAW X6 -->
<svg xmlns="http://www.w3.org/2000/svg" xml:space="preserve" width="100px" height="100px" version="1.1" style="shape-rendering:geometricPrecision; text-rendering:geometricPrecision; image-rendering:optimizeQuality; fill-rule:evenodd; clip-rule:evenodd"
viewBox="0 0 10000 10000"
 xmlns:xlink="http://www.w3.org/1999/xlink">
 <defs>
  <style type="text/css">
   <![CDATA[
    .fil1 {fill:black}
    .fil2 {fill:#000059}
    .fil0 {fill:#1F1F1F}
    .fil3 {fill:#222323}
    .fil6 {fill:#2B2A29}
    .fil5 {fill:#303030}
    .fil4 {fill:#ACACAC}
   ]]>
  </style>
 </defs>
 <g id="Слой_x0020_1">
  <metadata id="CorelCorpID_0Corel-Layer"/>
  <g id="_132455400">
   <path class="fil0" d="M7550 9000l-4954 0c-229,0 -415,-150 -415,-334l0 -7555c0,-185 186,-334 415,-334l4954 0c229,0 415,150 415,334l0 7555c0,185 -186,334 -415,334z"/>
   <rect class="fil1" x="2483" y="1078" width="5181" height="7620"/>
   <rect class="fil2" x="3705" y="3296" width="2736" height="3865"/>
   <g id="_395079184">
    <path id="_248793704" class="fil3" d="M7273 5540l-278 0c-90,0 -163,-73 -163,-163l0 -278c0,-90 73,-163 163,-163l278 0c90,0 163,73 163,163l0 278c0,90 -73,163 -163,163z"/>
    <path id="_248793464" class="fil4" d="M7346 5469l-278 0c-90,0 -163,-73 -163,-163l0 -278c0,-90 73,-163 163,-163l278 0c90,0 163,73 163,163l0 278c0,90 -73,163 -163,163z"/>
   </g>
   <path class="fil5" d="M7297 5504l-252 0c-97,0 -176,-79 -176,-176l0 -252c0,-97 79,-176 176,-176l252 0c97,0 176,79 176,176l0 252c0,97 -79,176 -176,176z"/>
   <g id="_395078896">
    <path id="_248794832" class="fil3" d="M3070 5540l-278 0c-90,0 -163,-73 -163,-163l0 -278c0,-90 73,-163 163,-163l278 0c90,0 163,73 163,163l0 278c0,90 -73,163 -163,163z"/>
    <path id="_248795072" class="fil4" d="M3143 5469l-278 0c-90,0 -163,-73 -163,-163l0 -278c0,-90 73,-163 163,-163l278 0c90,0 163,73 163,163l0 278c0,90 -73,163 -163,163z"/>
   </g>
   <path class="fil5" d="M3094 5504l-252 0c-97,0 -176,-79 -176,-176l0 -252c0,-97 79,-176 176,-176l252 0c97,0 176,79 176,176l0 252c0,97 -79,176 -176,176z"/>
   <g id="_395078608">
    <path id="_248794520" class="fil3" d="M3070 4785l-278 0c-90,0 -163,-73 -163,-163l0 -278c0,-90 73,-163 163,-163l278 0c90,0 163,73 163,163l0 278c0,90 -73,163 -163,163z"/>
    <path id="_248794760" class="fil4" d="M3143 4715l-278 0c-90,0 -163,-73 -163,-163l0 -278c0,-90 73,-163 163,-163l278 0c90,0 163,73 163,163l0 278c0,90 -73,163 -163,163z"/>
   </g>
   <path class="fil5" d="M3094 4750l-252 0c-97,0 -176,-79 -176,-176l0 -252c0,-97 79,-176 176,-176l252 0c97,0 176,79 176,176l0 252c0,97 -79,176 -176,176z"/>
   <g id="_395078320">
    <path id="_248794208" class="fil3" d="M3070 4031l-278 0c-90,0 -163,-73 -163,-163l0 -278c0,-90 73,-163 163,-163l278 0c90,0 163,73 163,163l0 278c0,90 -73,163 -163,163z"/>
    <path id="_248794448" class="fil4" d="M3143 3960l-278 0c-90,0 -163,-73 -163,-163l0 -278c0,-90 73,-163 163,-163l278 0c90,0 163,73 163,163l0 278c0,90 -73,163 -163,163z"/>
   </g>
   <path class="fil5" d="M3094 3995l-252 0c-97,0 -176,-79 -176,-176l0 -252c0,-97 79,-176 176,-176l252 0c97,0 176,79 176,176l0 252c0,97 -79,176 -176,176z"/>
   <g id="_395078032">
    <path id="_248795144" class="fil3" d="M3070 6696l-278 0c-90,0 -163,-73 -163,-163l0 -278c0,-90 73,-163 163,-163l278 0c90,0 163,73 163,163l0 278c0,90 -73,163 -163,163z"/>
    <path id="_248795384" class="fil4" d="M3143 6626l-278 0c-90,0 -163,-73 -163,-163l0 -278c0,-90 73,-163 163,-163l278 0c90,0 163,73 163,163l0 278c0,90 -73,163 -163,163z"/>
   </g>
   <path class="fil5" d="M3094 6661l-252 0c-97,0 -176,-79 -176,-176l0 -252c0,-97 79,-176 176,-176l252 0c97,0 176,79 176,176l0 252c0,97 -79,176 -176,176z"/>
   <g id="_395077744">
    <path id="_248793320" class="fil3" d="M7273 4031l-278 0c-90,0 -163,-73 -163,-163l0 -278c0,-90 73,-163 163,-163l278 0c90,0 163,73 163,163l0 278c0,90 -73,163 -163,163z"/>
    <path id="_248794088" class="fil4" d="M7346 3960l-278 0c-90,0 -163,-73 -163,-163l0 -278c0,-90 73,-163 163,-163l278 0c90,0 163,73 163,163l0 278c0,90 -73,163 -163,163z"/>
   </g>
   <path class="fil5" d="M7297 3995l-252 0c-97,0 -176,-79 -176,-176l0 -252c0,-97 79,-176 176,-176l252 0c97,0 176,79 176,176l0 252c0,97 -79,176 -176,176z"/>
   <g id="_395077456">
    <path id="_248793920" class="fil3" d="M7273 4785l-278 0c-90,0 -163,-73 -163,-163l0 -278c0,-90 73,-163 163,-163l278 0c90,0 163,73 163,163l0 278c0,90 -73,163 -163,163z"/>
    <path id="_248793776" class="fil4" d="M7346 4715l-278 0c-90,0 -163,-73 -163,-163l0 -278c0,-90 73,-163 163,-163l278 0c90,0 163,73 163,163l0 278c0,90 -73,163 -163,163z"/>
   </g>
   <path class="fil5" d="M7297 4750l-252 0c-97,0 -176,-79 -176,-176l0 -252c0,-97 79,-176 176,-176l252 0c97,0 176,79 176,176l0 252c0,97 -79,176 -176,176z"/>
   <path class="fil5" d="M1967 6513l0 1953c0,294 -238,533 -533,533l-243 0c-294,0 -533,-238 -533,-533l0 -1953c0,-294 238,-533 533,-533l243 0c294,0 533,239 533,533z"/>
   <path class="fil5" d="M9486 6513l0 1953c0,294 -238,533 -533,533l-243 0c-294,0 -533,-238 -533,-533l0 -1953c0,-294 238,-533 533,-533l243 0c294,0 533,239 533,533z"/>
   <rect class="fil6" transform="matrix(1.12783E-015 0.0425845 -0.0425845 1.12783E-015 8179.99 7363.65)" width="5906" height="5079"/>
   <rect class="fil6" transform="matrix(1.12783E-015 0.0425845 -0.0425845 1.12783E-015 2183.3 7363.65)" width="5906" height="5079"/>
  </g>
 </g>
</svg>
