<?xml version="1.0" encoding="UTF-8"?>
<!DOCTYPE svg PUBLIC "-//W3C//DTD SVG 1.1//EN" "http://www.w3.org/Graphics/SVG/1.1/DTD/svg11.dtd">
<!-- Creator: CorelDRAW -->
<svg xmlns="http://www.w3.org/2000/svg" xml:space="preserve" width="12.706mm" height="12.731mm" style="shape-rendering:geometricPrecision; text-rendering:geometricPrecision; image-rendering:optimizeQuality; fill-rule:evenodd; clip-rule:evenodd"
viewBox="0 0 12.706 12.731"
 xmlns:xlink="http://www.w3.org/1999/xlink">
 <defs>
  <style type="text/css">
   <![CDATA[
    .fil0 {fill:#222323}
    .fil2 {fill:#303030}
    .fil1 {fill:#ACACAC}
   ]]>
  </style>
 </defs>
 <g id="Layer_x0020_1">
  <metadata id="CorelCorpID_0Corel-Layer"/>
  <g id="_249079112">
   <path id="_248090648" class="fil0" d="M3.9516 0.7437l5.5211 0c1.7817,0 3.2394,1.4578 3.2394,3.2395l0 5.5211c0,1.7817 -1.4577,3.2394 -3.2394,3.2394l-5.5211 0c-1.7817,0 -3.2395,-1.4577 -3.2395,-3.2394l0 -5.5211c0,-1.7817 1.4578,-3.2395 3.2395,-3.2395z"/>
   <path id="_248090600" class="fil1" d="M3.246 0.0129l5.5211 0c1.7817,0 3.2394,1.4578 3.2394,3.2395l0 5.5211c0,1.7817 -1.4577,3.2394 -3.2394,3.2394l-5.5211 0c-1.7817,0 -3.2395,-1.4577 -3.2395,-3.2394l0 -5.5211c0,-1.7817 1.4578,-3.2395 3.2395,-3.2395z"/>
  </g>
  <rect class="fil2" x="0.359346" y="0.378346" width="12" height="12" rx="3.2396" ry="3.2396"/>
 </g>
</svg>
