<?xml version="1.0" encoding="UTF-8"?>
<!DOCTYPE svg PUBLIC "-//W3C//DTD SVG 1.1//EN" "http://www.w3.org/Graphics/SVG/1.1/DTD/svg11.dtd">
<!-- Creator: CorelDRAW -->
<svg xmlns="http://www.w3.org/2000/svg" xml:space="preserve" width="68.214mm" height="71.049mm" style="shape-rendering:geometricPrecision; text-rendering:geometricPrecision; image-rendering:optimizeQuality; fill-rule:evenodd; clip-rule:evenodd"
viewBox="0 0 68.214 71.049"
 xmlns:xlink="http://www.w3.org/1999/xlink">
 <defs>
  <style type="text/css">
   <![CDATA[
    .str0 {stroke:#2B2A29;stroke-width:0.2}
    .str1 {stroke:#2B2A29;stroke-width:1.5}
    .fil2 {fill:none}
    .fil0 {fill:#2B2A29}
    .fil1 {fill:#AAFA20}
   ]]>
  </style>
 </defs>
 <g id="Layer_x0020_1">
  <metadata id="CorelCorpID_0Corel-Layer"/>
  <g id="_250878408">
   <path id="_251046560" class="fil0 str0" d="M9.3361 26.1709c-1.9829,5.5366 -2.0585,7.8293 -1.535,13.6087l0.0286 0.0474c0.1877,0.3116 0.5044,0.7118 0.84,0.9538 0.1528,-0.0784 0.3077,-0.1576 0.4652,-0.2379 -0.4247,-1.3267 -0.6922,-2.2888 -0.8926,-3.6684l0.0105 0.222c-0.125,-2.3476 -0.0446,-4.0989 0.2278,-6.4505 0.2428,-1.3657 0.46,-2.6194 0.7919,-3.9768l0.4655 -1.2623c-0.0223,-0.0099 -0.0448,-0.0198 -0.0674,-0.0298 -0.1164,0.2715 -0.2241,0.4857 -0.3345,0.7938z"/>
   <path id="_251046608" class="fil0 str0" d="M61.4121 24.3548c1.0812,2.6892 1.729,8.9792 1.7546,10.0236 0.07,2.8665 -0.8002,6.552 -1.7523,9.4229 0.524,-0.0042 1.4025,-0.0852 1.8014,-0.1108l0.0846 0.0891 0.0663 0.0699 0.0025 0.0027c0.0029,-0.0029 0.0101,-0.014 0.0205,-0.0317 0.0904,-0.1523 0.43,-0.7898 0.4338,-0.7953 0.2411,-0.3381 0.2587,-1.4832 0.4354,-1.9065 0.1302,-0.3121 0.5158,-2.9163 0.6392,-3.4961 0.1926,-0.9051 0.0447,-1.6398 0.0921,-2.4902 0.0612,-1.0969 0.0014,-2.8341 -0.1104,-3.8966 -0.1173,-1.1155 -0.1973,-1.6322 -0.3969,-2.7213 -0.1267,-0.6913 -0.3677,-1.3034 -0.464,-1.828 -0.1542,-0.8405 -0.3199,-1.0175 -0.5449,-1.7195 -0.0155,-0.0484 -0.1083,-0.1943 -0.1085,-0.1953 -0.0443,-0.2956 -0.3893,-0.855 -0.6111,-1.2365 -0.0897,-0.1542 -0.1592,-0.2793 -0.1807,-0.3463 -0.0284,-0.0887 -0.0986,-0.017 -0.0236,-0.2525l-0.1353 -0.0455 -0.0882 -0.0297c-0.009,0.0311 -0.0176,0.0613 -0.0249,0.0906 -0.0318,0.129 -0.0374,0.2425 0.0686,0.3537 0.0589,0.1182 0.1165,0.2369 0.173,0.356 -0.3823,0.2301 -0.7495,0.4574 -1.1312,0.6933zm0.9548 -1.0563c-0.0063,-0.0093 -0.0104,-0.0183 -0.0165,-0.0337l0.0165 0.0337z"/>
   <path id="_251046752" class="fil0 str0" d="M44.2793 62.6463c-0.8786,-0.0363 -2.0453,-0.2302 -2.9529,-0.5435 0.1063,2.2681 0.6132,5.4611 0.3975,7.4277 -0.0695,0.0261 -0.1397,0.0517 -0.2109,0.0767 -0.0336,0.0118 -0.0674,0.0236 -0.1014,0.0351 -0.0645,0.0221 -0.1297,0.0437 -0.1958,0.0648 -0.0892,0.0287 -0.1798,0.0565 -0.2719,0.0836l0.0675 0.2269 0.0092 0.0312c0.1174,-0.0318 0.2212,-0.0622 0.3217,-0.0933 0.099,-0.0306 0.1949,-0.0618 0.2972,-0.0955 0.0137,-0.0045 0.0276,-0.009 0.0416,-0.0137 0.0345,-0.0113 0.0699,-0.023 0.1065,-0.035 0.6491,-0.2137 3.1363,-1.6128 3.594,-2.0615 0.0307,-0.0302 0.2131,-0.2103 0.3944,-0.3846 0.0688,-0.0661 0.1373,-0.1313 0.1975,-0.1872 0.0985,-0.0917 0.1744,-0.1584 0.1908,-0.1627l-0.0572 -0.2015c-0.0067,-0.0181 -0.0133,-0.0363 -0.02,-0.0545 -0.0701,0.0573 -0.1397,0.114 -0.2089,0.1703 -0.0684,0.0556 -0.1365,0.1109 -0.2043,0.1655 -0.5021,-1.349 -1.0555,-3.1326 -1.3946,-4.4488z"/>
   <path id="_251046512" class="fil0 str0" d="M8.2139 41.0278c-0.2009,-0.1751 -0.3847,-0.3819 -0.5388,-0.5902 -0.0017,0.0007 -0.0035,0.0013 -0.0053,0.002 -0.0242,0.0089 -0.0487,0.0152 -0.0731,0.0192 -2.0721,1.2812 -3.0964,1.7908 -5.1525,3.2901 -0.4433,0.3232 -0.8959,0.6387 -1.3758,0.9049 -0.1441,0.0991 -0.173,0.1231 -0.2137,0.1456l0.3063 0.2112 0.4587 0.3163c2.3933,-1.9977 4.2384,-3.0775 6.5942,-4.2991z"/>
   <path id="_250716496" class="fil0 str0" d="M27.6132 60.324c-5.0405,-1.8113 -9.0162,-4.637 -12.7321,-8.3502 -0.2856,0.2595 -0.854,0.6588 -1.5692,1.1232 -0.1108,0.0719 -0.225,0.1453 -0.3423,0.22 0.2974,0.3707 0.3875,0.5262 0.8857,0.9861 0.5918,0.5462 1.0206,1.2776 1.7246,1.8389l0.1023 0.0816c0.5678,0.4528 0.72,0.7432 1.4561,1.2456 1.082,0.7386 1.0037,0.8764 2.3438,1.5546 1.3111,0.6635 1.9823,1.0734 3.3985,1.55 0.4972,0.1673 1.7788,0.842 2.453,1.0901l0.2615 0.0964c0.2668,0.0981 1.0658,0.3602 1.631,0.4882 0.0968,0.0219 0.2247,0.0479 0.3647,0.0761 0.1966,0.0395 0.4171,0.0832 0.6087,0.1258 0.1525,0.0338 0.2868,0.0669 0.3764,0.0964l0.1231 -0.373c-0.1732,-0.0415 -0.3409,-0.0803 -0.5048,-0.1179 -0.2037,-0.0468 -0.4015,-0.0916 -0.5967,-0.1369 0.0083,-0.5376 0.0143,-1.0707 0.0157,-1.595z"/>
   <path id="_250716520" class="fil0 str0" d="M53.8541 55.4997l0.0573 -0.0404 -0.1236 0.0996 0.0663 -0.0592zm-4.2875 2.7796c-1.9556,1.3288 -3.0714,1.7752 -5.4706,2.708l0.1781 -0.0555c-1.533,0.5668 -1.6652,0.6354 -2.1171,0.7688 0.8333,0.227 1.8064,0.355 2.4702,0.3503 0.0182,-0.0001 0.0361,-0.0003 0.0539,-0.0006l0.0122 0.1943 0.0026 0.0425c0.0098,-0.001 0.0197,-0.0021 0.03,-0.0033 0.832,-0.1 3.1877,-1.0609 3.821,-1.4455l0.0607 -0.0368c0.7262,-0.4408 1.4202,-0.8649 2.2866,-1.2563 1.2123,-0.5474 2.761,-1.6679 3.7463,-2.5692 0.0731,-0.0669 0.7883,-0.6054 1.237,-0.938 0.2046,-0.1516 0.3537,-0.2604 0.3615,-0.2623l-0.0493 -0.2043 -0.0076 -0.0314 -0.0211 0.015 -0.5042 0.3573c-0.5113,-0.2911 -0.9938,-0.5666 -1.4148,-0.8076l-0.0857 0.1252 -0.3022 0.2698c-1.3707,0.9641 -2.8511,1.9184 -4.2875,2.7796z"/>
   <path id="_250716160" class="fil0 str0" d="M62.233 44.4719c2.0262,1.0475 4.452,2.4095 5.6709,3.2738 0.1783,-0.2942 0.2572,-0.3106 0.3237,-0.8799 -1.5678,-0.6983 -3.3588,-1.7168 -4.8828,-2.5254 -0.3644,0.082 -0.7375,0.1195 -1.1118,0.1315z"/>
   <path id="_250715296" class="fil0 str0" d="M33.1101 28.3195c4.7471,-0.9495 9.5152,0.384 12.4613,4.2019 -1.1251,-4.6094 -5.2496,-8.06 -10.2144,-8.1304 -5.892,-0.0837 -10.7361,4.6249 -10.8198,10.5168 -0.0053,0.3713 0.0085,0.7383 0.0404,1.1003 1.0965,-3.5891 5.0937,-7.0008 8.5325,-7.6886z"/>
   <path id="_250715080" class="fil1 str0" d="M35.357 24.391c5.892,0.0836 10.6005,4.9277 10.5169,10.8197 -0.0836,5.892 -4.9278,10.6006 -10.8198,10.517 -5.892,-0.0837 -10.6005,-4.9279 -10.5169,-10.8199 0.0837,-5.8919 4.9278,-10.6005 10.8198,-10.5168zm-24.3582 1.5588c-0.0041,-0.0016 0.6681,-1.1475 0,0zm29.4013 34.5107c4.8678,-1.6461 8.1962,-3.211 12.2985,-6.2542l0.1236 -0.0995 0.1017 -0.1108 -0.0094 0.0588 0.1828 -0.2226 0.341 -0.4153c2.5039,1.4614 5.1255,2.9223 7.6707,4.3553 0.1547,0.0871 0.3091,0.1741 0.4631,0.261 0.0532,0.0133 0.1028,0.0318 0.1481,0.0552 0.1314,-0.1207 0.2492,-0.2479 0.3541,-0.3422l0.0969 -0.0871c0.4541,-0.4086 0.427,-0.4848 0.7855,-0.9456 0.688,-0.8843 1.9208,-2.6818 2.3953,-3.6623 0.2281,-0.4712 0.548,-1.1035 0.7438,-1.565l0.018 -0.0424c0.167,-0.3936 0.3966,-0.8436 0.5796,-1.2179 0.1248,-0.2553 0.4808,-0.8637 0.7453,-1.4026 0.0947,-0.193 0.1777,-0.377 0.2341,-0.5328 0.0245,-0.0675 0.0439,-0.1296 0.0572,-0.1849 -0.0197,0.0061 -0.0336,0.0128 -0.0572,0.0323 0.0233,-0.0244 0.0379,-0.0435 0.0598,-0.0708 0.0035,-0.006 0.0064,-0.0122 0.0093,-0.0183 0.005,-0.0292 0.0079,-0.0559 0.0082,-0.0797l-0.6185 -0.0088c-0.0019,0.0043 -0.0038,0.0086 -0.0057,0.0129 -0.0799,0.1785 -0.165,0.3672 -0.2551,0.5644 -2.4145,-1.2369 -4.7714,-2.7159 -7.1887,-3.9653l0.0046 -0.0411 0.0665 -0.5974 0.071 -0.6386c0.2273,0.1007 0.4894,0.2223 0.7778,0.3607 0.2279,-0.616 0.4591,-1.2852 0.4455,-1.5489 -0.0067,-0.1308 0.705,-2.7089 0.8089,-2.8968 0.0945,-0.1707 0.2928,-1.5807 0.2813,-1.8041l0.0561 -0.7399c0.0711,-0.894 0.1162,-1.3352 0.1297,-2.2873 0.0159,-1.1202 -0.4238,-3.5766 -0.3888,-4.472 0.0141,-0.3593 -0.5201,-2.842 -0.6471,-3.0317 -0.0083,-0.0124 -0.4243,-1.3809 -0.4548,-1.4929 -0.0027,-0.0098 -0.1238,-0.2722 -0.2409,-0.5233 -0.101,-0.2168 -0.1991,-0.4251 -0.2152,-0.455 -0.0197,-0.0367 -0.0622,-0.1018 -0.1147,-0.1789 -0.1406,-0.2061 -0.3531,-0.4977 -0.3965,-0.5598 -0.0049,-0.0071 -0.0076,-0.0112 -0.0079,-0.0119l0.1203 -0.0558c1.3971,-0.8408 4.5003,-2.6979 6.0237,-3.5542 0.1038,0.2156 0.2073,0.4314 0.3106,0.6473 0.057,0.1192 -0.2599,-0.5422 -0.2028,-0.423l0.3675 0.7604 0.5488 -0.1301c-0.0096,-0.0386 -0.8951,-0.5972 -0.9163,-0.6303 -0.0626,-0.0971 0.734,0.2928 0.6629,0.1527 -0.094,-0.1853 -0.1946,-0.4026 -0.2996,-0.6368 -0.3994,-0.8916 -0.8614,-2.0291 -1.2602,-2.5889l-0.0483 -0.0677c-0.6633,-0.9311 -0.8857,-1.7505 -1.5983,-2.7388l-0.0673 -0.0934c-1.0707,-1.485 -1.3577,-2.0454 -2.56,-3.3749 -0.2253,-0.249 -1.1518,-0.9641 -1.5577,-1.3232 -0.1168,-0.1032 -0.1904,-0.177 -0.1919,-0.2018l-0.1151 0.0064 -0.4487 0.0249c0.049,0.0543 0.0972,0.1075 0.1447,0.1597 0.0783,0.0859 0.1548,0.1691 0.2295,0.2498 -1.8637,1.1562 -6.0163,3.6156 -6.4448,4.2086 0.0153,-0.0363 0.0231,-0.0648 0.0256,-0.0923l-0.2413 -0.0483 -0.196 0.2411c-0.1504,-0.0953 0.0532,-0.2116 -0.0993,-0.3063l0.0756 -0.069c-0.0027,-0.0129 -0.0195,0.1426 -0.0208,0.1293 -0.0122,-0.1232 -0.3111,-0.125 -0.2122,-0.28 -1.0423,-0.6941 -4.1006,-2.4908 -4.8003,-2.6894 -1.0281,-0.2918 -3.464,-1.402 -4.0648,-1.557l-0.1244 -0.032c-0.6331,-0.2971 -1.1087,-0.3286 -1.5488,-0.5086 -0.3547,-0.1451 -0.9816,-0.2805 -1.5981,-0.3801 -0.235,-0.0379 -0.4685,-0.0706 -0.6848,-0.0967 -0.2648,-0.0319 -0.5038,-0.0539 -0.6885,-0.0631l-0.0146 0.2757c-0.0812,-3.0926 -0.2188,-4.8717 -0.7169,-7.8696 -4.8295,0.1887 -6.5136,0.3487 -11.0866,1.1406 0.091,2.7627 0.117,4.7171 0.649,7.5204l0.2026 0.6252c-2.7231,1.2422 -5.1495,2.6891 -7.582,4.4113 -0.6616,0.5574 -2.519,1.3549 -2.7479,1.6847 0.0196,-0.038 0.1443,0.108 0.1501,0.08l-0.0348 0.4192 -0.3239 0.2652c-2.1078,-0.5281 -5.8654,-2.6755 -8.2159,-3.9286 -0.8796,1.1917 -1.9143,2.5013 -2.6341,3.7072l0.0438 -0.0665c-0.76,1.4112 -1.7198,2.9949 -2.5926,4.4449 1.7781,0.9779 5.3634,2.9952 7.0388,3.7695l0.4112 0.0459 0 0c-0.049,0.1494 -0.15,0.1097 -0.2275,0.2844 -0.0846,0.1905 -0.1802,0.3937 -0.2739,0.6049 -0.1612,0.3631 -0.3168,0.7497 -0.4011,1.1351 -0.1896,0.8675 -0.3154,1.1929 -0.4485,2.164 -0.0664,0.4839 -0.2214,1.1536 -0.3034,1.7506 -0.1557,1.1326 -0.2764,2.3035 -0.2468,3.4784 0.0225,0.8938 -0.1563,1.7684 0.0184,2.7151 -0.0038,0.0407 0.1562,0.7935 0.1785,0.9114 0.0713,0.3772 0.3856,1.7883 0.5786,2.3578 0.184,-0.0933 0.3715,-0.1884 0.5632,-0.2858l0.2812 0.5057 0.2358 0.424 0.0454 0.0816c-3.8,1.9344 -3.3743,1.6237 -7.4196,4.3682 -1.3061,0.8861 -0.6328,0.5453 -1.2513,0.829 1.3536,3.7283 2.2116,5.9029 4.4527,9.1193 2.1855,-1.1254 5.1801,-2.994 7.2339,-4.3911l0.4798 -0.1839 -0.0835 -0.0879c0.1059,-0.0733 0.2085,-0.1448 0.3076,-0.2145l0.1671 0.6751c0.3963,0.3511 0.8519,0.7068 1.2553,1.1578 0.8188,0.9152 2.6482,2.6914 3.6567,3.3285l0.1354 0.0856c0.9202,0.5815 2.6573,1.5692 3.5823,2.1891l0.1589 0.1065c1.2014,0.8052 1.803,0.9469 3.1438,1.4498 0.2244,0.0841 0.5452,0.2313 0.871,0.369 0.1838,0.0776 0.3691,0.1521 0.5397,0.2107 0.1483,0.0508 0.2855,0.0895 0.4007,0.1075l0.091 -0.5489 0.0545 0.0007c0.0262,3.1116 0.1117,6.2441 -0.185,9.3407 -0.0203,0.2116 -0.0424,0.4231 -0.0663,0.6343 0.4903,0.1111 1.0499,0.249 1.6787,0.3017 0.8661,0.0726 1.1184,0.2386 2.1957,0.2335 1.4375,-0.0067 2.5118,0.1608 4.1074,0.0841 1.1062,-0.0532 2.55,-0.0819 3.5933,-0.2521 0.3559,-0.0581 0.2201,0.0078 0.6956,-0.1497l0.0173 -0.0057 0.0387 -0.0128c0.1412,-0.0141 0.3187,-0.0121 0.4543,-0.0982 0.0255,-0.0163 0.0495,-0.0356 0.0715,-0.0588l-0.0642 -0.0606 -0.3993 -0.3771c0.0394,-0.0341 0.0416,-0.0409 0.0886,-0.0601 -0.053,0.0113 -0.096,0.0147 -0.1377,0.0175 0.1069,-2.1199 -0.3081,-4.7447 -0.4091,-6.8481 -0.0009,0.0003 -0.0018,0.0005 -0.0028,0.0008l0.0007 -0.0459c-0.0285,-0.6195 -0.0291,-1.1927 0.0199,-1.6932l0.0041 0.0005 0.0001 -0.005z"/>
   <g>
    <path id="_250715200" class="fil0" d="M26.5364 1.1969c0.1147,3.1891 0.0981,5.2448 0.7138,8.3835l-1.3258 0.4378c-0.6754,-3.3579 -0.6672,-5.4293 -0.784,-8.8411l1.396 0.0198z"/>
   </g>
   <path id="_250715752" class="fil2" d="M25.8384 1.187c-0.0036,0.2546 0.2256,5.4983 0.2384,5.5657 0.1926,1.019 0.2162,2.1556 0.5105,3.0466"/>
   <g>
    <path id="_250715872" class="fil0" d="M38.8956 -0.237c0.6176,3.5418 0.7816,5.424 0.8592,8.9058l-1.3929 -0.1012c-0.0856,-3.2602 -0.2338,-5.0608 -0.8012,-8.3684l1.3349 -0.4362z"/>
   </g>
   <path id="_250716424" class="fil2" d="M38.2282 -0.0189c0.3026,1.0511 0.7409,4.4985 0.7352,5.6965 -0.0032,0.6842 0.1326,2.3586 0.095,2.9406"/>
   <g>
    <path id="_250716544" class="fil0" d="M25.1591 1.1785c2.064,-0.3674 1.052,-0.1805 3.0367,-0.5593l-0.1342 0.0433c3.3301,-0.5943 7.4611,-0.7678 10.8314,-0.8912l0.0621 0.8772c-6.2102,0.2278 -7.598,0.3434 -13.2866,1.3456l-0.5094 -0.8156z"/>
   </g>
   <path id="_250716784" class="fil2" d="M25.4138 1.5863c1.0152,-0.2359 1.9161,-0.2757 3.0586,-0.5646 0.3286,-0.1315 3.283,-0.2596 4.0559,-0.4926 0.4753,-0.1433 5.322,-0.2671 6.3958,-0.3192"/>
   <g>
    <path id="_250716448" class="fil0" d="M38.8899 -0.244c0.8973,0.1193 1.1424,0.1466 2.0194,0.4062l-0.0158 1.1098c-0.9836,-0.1596 -1.3292,-0.2974 -2.3619,-0.4351l0.3583 -1.0809z"/>
   </g>
   <path id="_250715272" class="fil2" d="M38.7107 0.2965c0.5949,0.093 0.7978,0.0591 1.3562,0.2319 0.1522,0.0472 0.6894,0.1866 0.8345,0.1887"/>
   <g>
    <path id="_250501168" class="fil0" d="M40.8859 0.1652c0.6088,2.6844 0.6206,3.3305 0.756,6.1781 0.0371,0.7825 0.1138,1.5825 0.1028,2.3593l-0.4703 -0.0066c0.0176,-1.2364 -0.1241,-3.0789 -0.2103,-4.3501 -0.1738,-2.5625 -0.2603,-2.1664 -0.6482,-4.2007l0.47 0.02z"/>
   </g>
   <path id="_250500208" class="fil2" d="M40.6509 0.1552c-0.0146,0.364 0.4996,1.1849 0.4632,1.8898 -0.0177,0.3425 0.2221,1.5947 0.1848,2.314 -0.0187,0.3608 0.1461,1.2819 0.1082,1.9704 -0.0221,0.4001 0.1162,1.3998 0.1065,2.0846 -0.0014,0.0951 -0.0027,0.1902 -0.0041,0.2853"/>
   <g>
    <path id="_250500424" class="fil0" d="M38.398 7.8738c2.0563,0.2482 2.8339,0.434 4.7013,1.0937l-0.0747 -0.0269c3.062,0.7894 7.2125,3.0721 9.8289,4.7931l-0.5397 0.649c-4.098,-2.5959 -9.0188,-5.0687 -13.9587,-5.6687l0.0429 -0.8402z"/>
   </g>
   <path id="_250500880" class="fil2" d="M38.3766 8.2939c0.7344,0.037 2.3267,0.2732 2.9853,0.5427 0.4421,0.1809 0.9199,0.2125 1.556,0.5111l0.125 0.0322c0.6036,0.1557 3.0509,1.2715 4.0838,1.5648 0.7552,0.2144 4.2448,2.2821 5.0207,2.8387 0.1132,0.0812 0.3256,0.1844 0.4362,0.2748"/>
   <g>
    <path id="_250501096" class="fil0" d="M51.9885 13.9342c-0.2622,-1.2243 6.2281,-4.4514 6.973,-4.8153l0.7914 0.228c-0.9555,0.6628 -6.4978,3.8745 -6.9896,4.555 0.0369,-0.0872 0.0288,-0.1287 0.009,-0.2204l-0.7838 0.2527z"/>
   </g>
   <path id="_250500232" class="fil2" d="M52.3804 13.8079c-0.096,-0.2924 1.7501,-1.4354 2.1369,-1.6977 0.6548,-0.444 1.3664,-0.9345 2.1259,-1.2631 0.2288,-0.099 2.7138,-1.6135 2.714,-1.6142"/>
   <g>
    <path id="_251290240" class="fil0" d="M59.3138 23.9986c0.6136,-0.3736 7.2305,-4.3577 7.5537,-4.4033l-0.1401 0.083 0.8809 1.0972c-0.2196,0.1254 -0.1738,0.1168 -0.3376,0.1672 -1.2047,0.7229 -2.4207,1.3743 -3.6416,2.0628l0.2092 -0.0949c-1.3729,0.7638 -2.3078,1.3866 -3.6628,2.2003l-0.8617 -1.1123z"/>
   </g>
   <path id="_251290048" class="fil2" d="M59.7446 24.5547c0.3907,-0.3026 2.2228,-1.2579 2.3788,-1.5 0.0185,-0.0286 1.1324,-0.6008 1.3237,-0.7289 0.1243,-0.0332 0.9013,-0.6147 1.2806,-0.7095 0.0103,-0.0026 2.0083,-1.1731 2.1628,-1.2659l0.0612 -0.0367c0.0658,-0.0396 0.1707,-0.0502 0.2162,-0.0868"/>
   <g>
    <path id="_251290504" class="fil0" d="M60.5583 23.1619c1.5868,0.5487 2.5767,9.9206 2.6084,11.2165 0.082,3.3552 -1.1242,7.8325 -2.2422,10.8122l-1.6374 -0.6921c0.5159,-1.3857 1.7069,-5.0817 1.8556,-6.3193 0.5733,-4.7694 0.2642,-10.306 -2.2123,-14.278l1.6279 -0.7393z"/>
   </g>
   <path id="_251290384" class="fil2" d="M59.7444 23.5316c0.0029,0.009 0.4554,0.611 0.5365,0.7583 0.036,0.0652 0.4663,0.9699 0.4715,0.9883 0.0316,0.1132 0.4618,1.4956 0.4703,1.5081 0.1313,0.1917 0.684,2.6996 0.6696,3.0625 -0.0359,0.9045 0.4192,3.3858 0.4031,4.5173 -0.0136,0.9617 -0.06,1.4074 -0.1332,2.3104 -0.0051,0.062 -0.0577,0.7473 -0.0577,0.7473 0.0119,0.2257 -0.1925,1.6499 -0.2901,1.8223 -0.1073,0.1897 -0.8417,2.7936 -0.8347,2.9257 0.0247,0.4645 -0.7191,2.1735 -0.874,2.6727"/>
   <g>
    <path id="_250877304" class="fil0" d="M15.7895 16.3307c0.2832,-1.9357 7.382,-5.8385 8.6508,-6.591l-0.1818 0.1351c1.7406,-0.9738 0.8391,-0.5266 2.6784,-1.3509l0.4731 1.4603c-2.7231,1.2422 -5.1495,2.6892 -7.582,4.4113 -0.6616,0.5574 -2.3265,1.8556 -2.5554,2.1854 0.0434,-0.0843 0.0371,-0.1156 0.0516,-0.2197l-1.5347 -0.0305z"/>
   </g>
   <path id="_249772496" class="fil2" d="M16.5569 16.346c0.01,-0.5029 2.3874,-2.0314 2.8525,-2.5896 0.4369,-0.247 0.9926,-0.9122 1.5608,-1.1016 0.3424,-0.1142 3.1342,-1.8653 3.8319,-2.2383 0.157,-0.1574 2.099,-1.0742 2.3713,-1.1624"/>
   <g>
    <path id="_249772784" class="fil0" d="M1.878 21.5143c0.7455,-1.6095 2.3784,-4.3861 3.2703,-5.8215l-0.0841 0.1407c1.0072,-1.5052 1.9368,-2.7593 2.9698,-4.1908l0.9236 0.8596c-0.9348,1.2971 -2.132,2.7737 -2.936,4.1208l0.0437 -0.0664c-0.8831,1.6398 -2.0359,3.5125 -3.0087,5.1377l-1.1786 -0.1801z"/>
   </g>
   <path id="_250497536" class="fil2" d="M2.4673 21.6044c0.0359,-0.2548 0.7766,-1.3954 0.9339,-1.7095 0.0381,-0.0761 0.4641,-0.7136 0.5676,-0.9275 0.1933,-0.3999 1.2831,-2.2338 1.5758,-2.7373 0.0074,-0.0126 0.0272,-0.0548 0.0403,-0.0721 0.0969,-0.2097 1.7232,-2.505 1.973,-2.83 0.3154,-0.4105 0.643,-0.8132 0.9379,-1.2555"/>
   <g>
    <path id="_250497752" class="fil0" d="M8.111 11.7244c3.1628,1.5218 5.5083,2.8323 8.8302,4.2816l0.578 0.3082 -0.6476 0.5304c-2.3346,-0.5849 -6.693,-3.1561 -8.9218,-4.2988l0.1612 -0.8214z"/>
   </g>
   <path id="_250498208" class="fil2" d="M8.0304 12.1351c0.2872,0.0563 1.7281,0.8987 2.0048,1.1194 0.3123,0.2491 1.9825,0.9673 2.5273,1.2225l0.0809 0.038c0.85,0.3982 1.6564,0.8731 2.5349,1.2205 0.2398,0.0948 0.9628,0.4693 1.1882,0.5091 0.0666,0.0118 0.7841,0.2801 0.8289,0.3348"/>
   <g>
    <path id="_250498424" class="fil0" d="M2.668 20.5048l0.0474 0.0431c0.7531,0.6834 7.1754,3.4554 8.7411,4.2047l-0.2641 1.2761c-1.689,-0.6759 -8.5896,-3.8265 -9.3941,-4.5566l0.8697 -0.9673z"/>
   </g>
   <path id="_250498880" class="fil2" d="M2.2331 20.9885l0.0948 0.0859c0.5438,0.4936 4.2735,2.1831 4.9978,2.5227l0.0662 0.031c1.0045,0.471 2.0722,0.8023 3.1373,1.4197 0.0272,0.0157 0.7942,0.3426 0.7952,0.3429"/>
   <g>
    <path id="_250499096" class="fil0" d="M11.8249 24.7932c-1.0699,3.1477 -1.6099,4.2197 -1.8701,7.751 -0.1286,1.7456 -0.2214,3.4715 0.1398,5.1675l0 0.0001c0.2364,1.012 0.6483,2.1911 0.7865,3.1508l-1.6842 -0.0239c-0.0408,-0.0585 -0.0161,-0.0013 -0.0678,-0.2638l0.0952 0.2458c-0.4772,-1.4748 -0.7679,-2.4721 -0.982,-3.9462l0.0104 0.222c-0.1249,-2.3476 -0.0445,-4.0989 0.2279,-6.4504l0 -0.0001c0.2427,-1.3657 0.46,-2.6194 0.7919,-3.9769l0.4999 -1.3555 0.4262 -0.9507 0.025 -0.0736 1.6013 0.5039z"/>
   </g>
   <path id="_250498136" class="fil2" d="M11.0243 24.5412l-0.0251 0.0737c-0.2016,0.5924 -0.7188,1.4124 -0.9039,2.2276 -0.1969,0.8673 -0.3275,1.1927 -0.4656,2.1637 -0.0688,0.4839 -0.2297,1.1536 -0.3147,1.7504 -0.1614,1.1326 -0.2863,2.3034 -0.2548,3.4784 0.0239,0.8938 -0.1618,1.7682 0.0207,2.7151 -0.004,0.0407 0.163,0.7936 0.1862,0.9115 0.0863,0.4373 0.5133,2.2637 0.6885,2.5586 0.0144,0.0705 0.0835,0.4238 0.0834,0.4305"/>
   <g>
    <path id="_250497800" class="fil0" d="M59.9451 43.3812c1.8996,0.8414 6.2655,3.1716 7.9991,4.4126l-0.0179 1.2657c-2.7454,-1.3049 -5.3943,-3.0109 -8.1212,-4.4203l0.14 -1.258z"/>
   </g>
   <path id="_248286336" class="fil2" d="M59.8751 44.0102c0.4522,0.0503 5.3974,2.9861 6.2889,3.4144 0.2877,0.1383 1.6625,1.0005 1.7713,1.002"/>
   <g>
    <path id="_248286264" class="fil0" d="M68.3686 47.9779c-1.1067,2.9859 -4.3842,9.6705 -7.0393,11.1072l-0.2918 -1.2022 -0.1492 0.0562c2.3306,-1.6522 4.9662,-7.1229 6.2433,-9.9788l1.237 0.0176z"/>
   </g>
   <path id="_249210104" class="fil2" d="M67.7501 47.9691c-0.0062,0.438 -0.8497,1.8333 -1.0567,2.2568 -0.1829,0.3743 -0.4126,0.8243 -0.5796,1.2179l-0.018 0.0424c-0.1958,0.4615 -0.5157,1.0939 -0.7438,1.565 -0.4746,0.9805 -1.7073,2.778 -2.3953,3.6623 -0.3585,0.4609 -0.3313,0.537 -0.7855,0.9456l-0.0969 0.087c-0.1896,0.1707 -0.4217,0.4487 -0.6989,0.6011 -0.0507,0.0279 -0.1558,0.128 -0.192,0.1368"/>
   <g>
    <path id="_248504344" class="fil0" d="M61.2162 43.7981c0.5366,0.0264 1.8922,-0.1125 2.1612,-0.1154l-0.0712 0.0055 0.2302 0.614c-0.0745,0.0243 -0.1093,0.0385 -0.1782,0.0352 -0.7022,0.1602 -1.4367,0.1539 -2.1514,0.1184l0.0094 -0.6577zm2.1612 -0.1154c0.0166,-0.0002 0.0293,0.0001 0.0372,0.001l-0.0202 -0.0023 -0.017 0.0013z"/>
   </g>
   <path id="_249772152" class="fil2" d="M61.2115 44.127c0.3487,0.0049 1.0948,0.0916 1.3996,-0.0061 0.1432,-0.046 0.4294,-0.016 0.7127,-0.1118 0.0588,-0.0081 0.0227,0.013 0.0971,-0.0149"/>
   <g>
    <path id="_248090360" class="fil0" d="M63.3022 43.775c1.8317,0.9537 3.6055,1.8847 5.4555,2.8097l-0.0717 0.4785c-1.741,-0.7219 -3.8389,-1.9334 -5.5556,-2.8361l0.1718 -0.4521z"/>
   </g>
   <path id="_248090672" class="fil2" d="M63.2163 44.001c0.2882,0.1096 1.135,0.632 1.5048,0.7964 0.4635,0.2062 1.1838,0.6046 1.6305,0.8677 0.587,0.346 1.2934,0.6116 1.9253,0.9343 0.1027,0.0524 0.3411,0.209 0.4449,0.2245"/>
   <g>
    <path id="_248090336" class="fil0" d="M68.7569 46.6406c-0.0755,0.8283 -0.125,0.9584 -0.5647,1.6383 -0.0744,0.1539 -0.1753,0.257 -0.3353,0.3105l-0.0706 -0.5006c-0.0612,0.0201 -0.0731,0.0157 -0.1135,0.0491 0.0233,-0.0244 0.0379,-0.0435 0.0598,-0.0708l-0.0067 0.0156c0.3397,-0.7293 0.4344,-0.4444 0.5255,-1.4493l0.5055 0.0072z"/>
   </g>
   <path id="_250973592" class="fil2" d="M68.5041 46.637c-0.0082,0.5803 -0.1851,1.0518 -0.535,1.5223l-0.0137 0.0296c-0.0085,0.018 -0.1101,0.1468 -0.1338,0.1502"/>
   <g>
    <path id="_250973424" class="fil0" d="M53.4383 53.4169c2.6561,1.5502 5.4446,3.0998 8.1338,4.6163 0.0532,0.0133 0.1029,0.0318 0.1482,0.0552 -0.0114,-0.0055 -0.0231,-0.0108 -0.0353,-0.016l-0.359 0.9957c-0.0445,-0.0195 -0.1166,-0.055 -0.2128,-0.1048 0.0579,0.0504 0.1287,0.0888 0.2106,0.111l-0.0033 0.0091c-0.098,-0.0398 -0.1711,-0.082 -0.2255,-0.1297 -1.4193,-0.7369 -7.7209,-4.337 -8.3387,-4.7063l0.682 -0.8305zm8.282 4.6715c0.0935,0.0484 0.1683,0.1177 0.2174,0.2051 -0.0387,-0.0812 -0.1051,-0.1506 -0.2174,-0.2051zm0.2174 0.2051c0.0599,0.1069 0.0811,0.2408 0.0504,0.397 0.0038,-0.1499 0.003,-0.2848 -0.0504,-0.397zm-0.6117 0.7746l-0.0022 0.0062c0.0165,0.0044 0.0334,0.0083 0.0508,0.0114 -0.0071,-0.0006 -0.0241,-0.0069 -0.0486,-0.0176zm-0.3528 -0.3048c-0.027,-0.091 -0.0304,-0.2001 -0.0269,-0.3365 -0.0233,0.1197 -0.0127,0.2357 0.0269,0.3365z"/>
   </g>
   <path id="_251244480" class="fil2" d="M53.0973 53.8322c0.3031,0.2489 1.5914,0.8932 2.0548,1.1496 0.2745,0.1519 2.5644,1.463 2.5882,1.4716 0.4415,0.1599 1.5826,1.016 1.974,1.1577 0.3874,0.1403 1.3355,0.8133 1.6959,0.9375 0.109,0.0143 0.0127,0.0004 0.0925,0.0293"/>
   <g>
    <path id="_251244504" class="fil0" d="M40.4001 60.4604c4.8678,-1.646 8.1961,-3.2109 12.2985,-6.2541l0.1236 -0.0995 0.1017 -0.1108 -0.0303 0.1899 1.6937 0.4153 -0.4311 0.6286 -0.3021 0.2699c-1.3706,0.964 -2.8512,1.9184 -4.2875,2.7796 -1.9556,1.3288 -3.0714,1.7751 -5.4706,2.708l0.1781 -0.0555c-2.5367,0.9379 -1.2378,0.5116 -3.8988,1.2723l0.0248 -1.7437zm13.454 -4.9607l-0.0663 0.0592 0.1236 -0.0995 -0.0573 0.0403z"/>
   </g>
   <path id="_250405496" class="fil2" d="M40.3877 61.3323c0.2955,0.0042 3.1079,-1.0132 3.5394,-1.2004 0.336,-0.0663 2.9136,-1.184 3.2153,-1.3999 0.3767,-0.2695 0.7997,-0.2722 1.2536,-0.7134 0.0368,-0.0357 0.5704,-0.3705 0.6632,-0.4452 0.2928,-0.1326 2.3948,-1.4555 2.5332,-1.6049 0.1364,-0.1474 1.2484,-0.6864 1.7126,-1.1357 0.055,-0.0365 0.4267,-0.4035 0.4355,-0.4393"/>
   <g>
    <path id="_250405640" class="fil0" d="M41.3437 60.5961c-0.2258,2.2188 0.7796,7.0485 0.321,9.3873 0.0024,-0.03 0.0026,-0.0589 0.0004,-0.0868l-0.9243 0.1713c0.029,0.1039 0.0679,0.1613 0.1503,0.231 -0.1455,-0.1194 -0.1975,-0.2678 -0.1743,-0.4454 0.369,-2.8242 -0.5585,-6.961 -0.3209,-9.3885l0.9478 0.1311zm0.1848 9.0193c-0.0099,-0.0095 -0.0202,-0.0187 -0.0312,-0.0277 0.0112,0.0094 0.0216,0.0187 0.0312,0.0277z"/>
   </g>
   <path id="_250406096" class="fil2" d="M40.8698 60.5305c-0.1408,0.9471 0.0425,0.7276 0.083,1.3839 0.0312,0.5063 0.0458,1.3803 0.0974,1.8305 0.0992,0.8643 -0.0043,1.9887 0.146,2.8933 0.0713,0.4293 0.0958,2.7482 -0.0015,3.2579 -0.0142,0.0745 0.0029,0.0195 0.016,0.0847"/>
   <g>
    <path id="_250406312" class="fil0" d="M27.596 68.7013c3.1929,0.5773 10.1236,1.3302 12.9483,0.3926 0.1688,-0.056 0.2383,-0.0298 0.3805,-0.06 -0.0469,0.0192 -0.0491,0.026 -0.0884,0.0601l0.9268 0.8755c-0.3184,0.2753 -0.4741,0.3137 -0.8643,0.3475 -3.0996,0.9799 -10.034,0.2847 -13.3827,-0.345l0.0798 -1.2707z"/>
   </g>
   <path id="_250405544" class="fil2" d="M27.5561 69.3366c0.6638,0.0415 1.5204,0.3668 2.5699,0.4548 0.8661,0.0726 1.1184,0.2386 2.1956,0.2335 1.4376,-0.0068 2.5119,0.1609 4.1075,0.0841 1.1062,-0.0532 2.55,-0.0819 3.5933,-0.2521 0.3559,-0.058 0.2201,0.0078 0.6955,-0.1496l0.056 -0.0186c0.1679,-0.0168 0.387,-0.0108 0.5259,-0.157"/>
   <g>
    <path id="_248287464" class="fil0" d="M44.7151 62.2456c0.4225,1.4931 1.015,3.4679 1.6084,4.9827l-0.4695 0.1969c-0.5951,-1.5193 -1.2968,-3.7685 -1.6449,-5.2037l0.506 0.0241z"/>
   </g>
   <path id="_249233312" class="fil2" d="M44.4621 62.2336c-0.0122,0.2679 1.037,3.134 1.1744,3.7531l0.0128 0.0576c0.0443,0.1994 0.1209,0.4227 0.1799,0.5942l0.0148 0.043c0.0747,0.2173 0.1596,0.4282 0.2448,0.6452"/>
   <g>
    <path id="_248602272" class="fil0" d="M40.9439 69.7907c2.18,-0.6333 3.5498,-1.6971 5.2052,-3.0335l0.1488 0.518c-1.2665,1.3354 -3.3878,2.5058 -5.1987,3.0318l-0.1553 -0.5163z"/>
   </g>
   <path id="_249083424" class="fil2" d="M41.0215 70.0488c0.29,-0.0775 0.4982,-0.1473 0.7757,-0.2375 0.6566,-0.2134 3.1719,-1.6121 3.6348,-2.0608 0.0622,-0.0603 0.738,-0.7206 0.7915,-0.7343"/>
   <g>
    <path id="_250973864" class="fil0" d="M44.6271 62.0491c4.5981,-1.3818 6.78,-3.0144 10.6978,-5.9015l0.8572 -0.6076 0.1138 0.4715c-4.0892,3.1516 -6.746,5.0821 -11.6464,6.5221l-0.0224 -0.4845z"/>
   </g>
   <path id="_248499216" class="fil2" d="M44.6383 62.2914c0.7392,-0.0343 3.2514,-1.0539 3.9086,-1.453l0.0607 -0.0369c0.7262,-0.4408 1.4201,-0.8649 2.2866,-1.2563 1.2123,-0.5475 2.7609,-1.668 3.7463,-2.5692 0.1064,-0.0973 1.5736,-1.1943 1.5985,-1.2003"/>
   <g>
    <path id="_248499240" class="fil0" d="M28.6986 59.5147c0.0292,3.4599 0.1316,6.9458 -0.2997,10.3795l-0.8262 -0.7955c-0.1299,-2.9519 0.0643,-6.4815 0.0384,-9.5994l1.0875 0.0154z"/>
   </g>
   <path id="_248120360" class="fil2" d="M28.1548 59.507c-0.0135,0.9506 0.0301,1.8227 0.0433,2.7896 0.0155,1.1489 -0.0727,3.1209 -0.0899,4.3309 -0.0044,0.3101 -0.0482,2.7707 -0.1224,2.8689"/>
   <g>
    <path id="_40848536" class="fil0" d="M11.0055 40.9005c-3.831,1.9501 -3.4019,1.6369 -7.4801,4.4037 -1.5262,1.0355 -0.3716,0.4091 -1.6712,1.0276l-1.0968 -0.268c3.5781,-3.1417 5.8293,-4.2263 9.681,-6.1829l0.5671 1.0196z"/>
   </g>
   <path id="_40848560" class="fil2" d="M10.7219 40.3907c-0.8785,0.5375 -1.5638,0.5361 -2.583,1.1971 -0.5372,0.3483 -0.8165,0.3625 -1.4579,0.8837 -0.7003,0.5691 -2.6515,1.9031 -3.4093,2.3059 -0.0111,0.0059 -1.9654,1.4182 -1.9659,1.4204"/>
   <g>
    <path id="_250164120" class="fil0" d="M7.7852 40.3402c-2.1377,1.3228 -3.1853,1.8421 -5.2974,3.3821 -0.4535,0.3306 -0.9164,0.6533 -1.4073,0.9256 -0.2819,0.1938 -0.1325,0.1069 -0.462,0.2648l-0.0749 -0.4752c0.5259,-0.3823 1.1222,-0.7089 1.6973,-1.1281 2.1046,-1.5338 3.1082,-2.0332 5.2416,-3.3431l0.3027 0.3739z"/>
   </g>
   <path id="_250164456" class="fil2" d="M7.6339 40.1533c-0.3703,0.2998 -1.2771,0.7284 -1.7599,1.0469 -0.4953,0.3269 -1.2924,0.6753 -1.7204,0.9495 -0.5494,0.352 -1.1552,0.987 -1.7892,1.3662 -0.2902,0.1735 -0.8036,0.6138 -1.0696,0.7262 -0.0239,0.0101 -0.335,0.2285 -0.382,0.237 -0.0223,0.0246 -0.306,0.192 -0.3317,0.196"/>
   <g>
    <path id="_250585712" class="fil0" d="M1.765 45.4271l0.267 0.1079c1.5165,4.1909 2.3459,6.429 4.8186,9.9343l-0.0098 -0.0156c0.1976,0.2315 0.2301,0.2894 0.3183,0.6076 -0.29,-0.3802 -0.2989,-0.5972 -0.5993,-0.6215l-0.0399 1.5939 0.0367 -0.001c-0.3538,0.0183 -0.5717,-0.1293 -0.7118,-0.4271 -2.2664,-2.6446 -4.9579,-8.4997 -5.2878,-12.0115l1.208 0.833zm4.0753 11.1689c-0.0282,-0.0613 -0.0531,-0.1287 -0.0754,-0.2022 0.024,0.0871 0.0326,0.1364 0.0754,0.2022z"/>
   </g>
   <path id="_250585232" class="fil2" d="M1.161 45.0106c-0.118,0.2142 1.6075,4.5692 1.8085,4.9616 0.1362,0.2662 1.2819,2.7873 1.3693,3.0294 0.0929,0.2575 0.5456,1.0263 0.7415,1.2572 0.0148,0.0174 1.1668,1.6417 1.1898,1.6778 0.0633,0.0998 0.1707,0.1733 0.1919,0.291 0.0361,0.015 0.0362,0.0061 0.0779,0.007"/>
   <g>
    <path id="_250585184" class="fil0" d="M14.7194 50.1757c4.0685,4.2892 8.2535,7.3754 13.9253,9.3343l-0.1832 1.1058c-5.9193,-1.9479 -10.3792,-5.2394 -14.5942,-9.6831l0.8521 -0.757z"/>
   </g>
   <path id="_250584224" class="fil2" d="M14.2933 50.5542l0.1248 0.1316c0.4605,0.4853 1.1012,0.9208 1.6464,1.5304 0.8188,0.9152 2.6483,2.6914 3.6568,3.3286l0.1354 0.0855c0.9202,0.5815 2.6574,1.5692 3.5823,2.1892l0.1589 0.1064c1.2014,0.8052 1.803,0.9469 3.1438,1.4498 0.4611,0.1729 1.3288,0.6119 1.8114,0.6872"/>
   <g>
    <path id="_250584560" class="fil0" d="M12.8965 52.6185c3.9753,4.6265 6.7431,6.5302 12.7036,8.725 1.0998,0.405 1.9871,0.564 3.0989,0.8303l-0.2462 0.746c-1.1263,-0.2653 -2.0069,-0.4277 -3.1242,-0.8391 -6.0789,-2.2384 -8.968,-4.2252 -13.028,-8.9502l0.5959 -0.512z"/>
   </g>
   <path id="_250585280" class="fil2" d="M12.5985 52.8745l0.1048 0.122c0.5441,0.6331 0.5312,0.7336 1.152,1.3066 0.5918,0.5462 1.0206,1.2776 1.7246,1.8389l0.1023 0.0816c0.5678,0.4528 0.72,0.7432 1.4561,1.2456 1.082,0.7386 1.0037,0.8764 2.3438,1.5546 1.3111,0.6635 1.9823,1.0734 3.3985,1.55 0.4972,0.1673 1.7788,0.842 2.453,1.0901l0.2615 0.0964c0.2668,0.0981 1.0658,0.3602 1.631,0.4882 0.3407,0.0771 1.0673,0.2051 1.3498,0.2983"/>
   <g>
    <path id="_250585784" class="fil0" d="M5.8571 55.6778c2.4303,-1.1315 6.521,-3.7033 8.7852,-5.2945l0.363 1.4665c-0.7721,0.8837 -7.0998,4.5408 -8.5105,5.1976l-0.6377 -1.3696z"/>
   </g>
   <path id="_250585904" class="fil2" d="M6.176 56.3626l0.3806 -0.1772c0.8728,-0.4063 1.7588,-1.2158 2.961,-1.7358 1.3828,-0.5981 2.6451,-1.5589 4.0065,-2.3212 0.2299,-0.1288 1.2948,-1.0106 1.2997,-1.0118"/>
   <g>
    <path id="_250586048" class="fil0" d="M7.7945 39.7686l0.0352 0.0584c0.235,0.3901 0.6723,0.9191 1.0957,1.1028l-0.1658 0.4609c-0.5435,-0.2386 -1.05,-0.8139 -1.3495,-1.3109l-0.0352 -0.0584 0.4196 -0.2528z"/>
   </g>
   <path id="_250878624" class="fil2" d="M7.5847 39.895l0.0704 0.1168c0.365,0.6059 0.3143,0.4553 0.8187,0.8965 0.1352,0.1183 0.1883,0.187 0.3687,0.2519"/>
   <g>
    <path id="_250877496" class="fil0" d="M59.7528 9.3636c2.6919,1.3843 6.7826,8.4323 7.8216,11.4043l-1.0975 0.2602 0.0063 0.0202c-1.0334,-2.1604 -2.0643,-4.3255 -3.3787,-6.3419 -1.7612,-2.7019 -2.5656,-3.1574 -4.4792,-5.2802l1.1275 -0.0626zm6.7304 11.6847c0.0038,0.0123 0.0027,0.0087 0.0122,0.0253l-0.0122 -0.0253z"/>
   </g>
   <path id="_250877592" class="fil2" d="M59.189 9.3949c0.0065,0.1108 1.4595,1.2043 1.7496,1.525 1.2022,1.3295 1.4893,1.8899 2.56,3.3749l0.0673 0.0934c0.7126,0.9883 0.935,1.8077 1.5983,2.7388l0.0483 0.0678c0.5827,0.8179 1.3004,2.8696 1.7607,3.5848 0.0213,0.033 0.0429,0.0798 0.0524,0.1184"/>
   <g>
    <path id="_250877928" class="fil0" d="M24.4031 36.7013c0.7551,-3.8326 5.0472,-7.6498 8.707,-8.3818 4.8143,-0.963 9.6501,0.4222 12.5853,4.3654 0.1266,0.1701 0.1145,0.1731 0.2083,0.4453 -2.1332,-1.4941 -2.9713,-2.6381 -5.6914,-3.5843 -2.3162,-0.8057 -6.0033,-0.6556 -8.0927,0.0926 -4.2649,1.5273 -5.5983,3.9034 -7.7165,7.0628z"/>
   </g>
   <path id="_250879032" class="fil2" d="M24.4031 36.7013c0.4299,-0.9363 0.3412,-1.134 1.0359,-2.2074l0.21 -0.3246c1.3626,-2.1056 3.9559,-3.9007 6.2349,-4.9829 1.0078,-0.4786 5.6345,-0.929 6.9647,-0.4961l0.2135 0.0695c0.7951,0.2588 1.8166,0.5161 2.4991,0.9562 0.5182,0.3343 0.9038,0.4277 1.5587,0.9335 0.9242,0.714 1.7421,1.1894 2.4878,2.1008 0.1326,0.1621 0.1779,0.2235 0.296,0.3799"/>
   <g>
    <path id="_250879368" class="fil0" d="M40.7762 61.1771c0.9458,0.528 2.8333,0.8484 3.9021,0.8287l0.0406 0.6462c-1.1576,0.0226 -3.1505,-0.3152 -4.1761,-0.8878l0.2334 -0.5871z"/>
   </g>
   <path id="_250880328" class="fil2" d="M40.6595 61.4707l0.1152 0.0643c1.3246,0.7395 1.9184,0.4026 2.7387,0.7279 0.2339,0.0928 0.9095,0.0921 1.1852,0.066"/>
   <path id="_250880544" class="fil0 str0" d="M39.7398 8.0571c0.5637,0.0905 1.0382,0.1904 1.5358,0.3254 -0.0064,-1.2192 -0.1323,-2.8689 -0.2115,-4.0365 -0.1338,-1.973 -0.2159,-2.1921 -0.4236,-3.1169 -0.619,-0.1099 -0.9811,-0.2097 -1.5496,-0.3074 0.4276,2.6434 0.5752,4.4117 0.6489,7.1354z"/>
   <g>
    <path id="_250880568" class="fil0" d="M6.8179 40.4229c-0.4995,-5.1343 -0.1282,-9.9546 2.283,-14.4989 0.2459,-0.4634 0.4444,-0.6638 0.7597,-1.0368 -0.1953,0.5643 -0.3568,0.8157 -0.5244,1.2837 -2.0166,5.6303 -2.0606,7.9059 -1.508,13.9049l-1.0103 0.3471z"/>
   </g>
   <path id="_250880256" class="fil2" d="M7.323 40.2494c-0.0833,-0.3262 0.0579,-0.9633 -0.1026,-1.5808 -0.3569,-1.3738 -0.3212,-4.8769 0.0553,-6.2279 0.1815,-0.6512 0.3961,-1.5747 0.5792,-2.2852l0.0374 -0.1452c0.3404,-1.3208 0.7516,-2.7076 1.3051,-3.9229l0.0754 -0.1655c0.058,-0.1274 0.5873,-0.9961 0.5878,-1.0347"/>
   <path id="_250878336" class="fil2" d="M62.5501 22.9363c-0.075,0.2356 -0.0048,0.1639 0.0236,0.2526 0.0746,0.2327 0.7296,1.1677 0.7918,1.5828 0.0002,0.001 0.093,0.1469 0.1085,0.1953 0.225,0.702 0.3907,0.879 0.5449,1.7195 0.0963,0.5246 0.3373,1.1367 0.464,1.828 0.1996,1.0891 0.2796,1.6058 0.3969,2.7213 0.1118,1.0625 0.1716,2.7997 0.1104,3.8966 -0.0474,0.8504 0.1005,1.5851 -0.0921,2.4903 -0.1234,0.5797 -0.509,3.1839 -0.6392,3.496 -0.1767,0.4233 -0.1943,1.5684 -0.4354,1.9065 -0.0043,0.0061 -0.4266,0.7992 -0.4543,0.827"/>
   <circle id="_250878456" class="fil2 str1" transform="matrix(0.614032 0.0087164 -0.00871642 0.614031 35.2056 35.0593)" r="17.3743"/>
  </g>
 </g>
</svg>
